<svg xmlns="http://www.w3.org/2000/svg" width="350" height="350"><g stroke-miterlimit="10" fill="#007ab9"><path d="M3.813 114.405h72.575v233.44H3.813v-233.44zM40.103-1.633c23.196 0 42.047 18.85 42.047 42.086 0 23.211-18.851 42.062-42.047 42.062-23.251 0-42.047-18.85-42.047-42.062 0-23.235 18.796-42.086 42.047-42.086M121.894 114.405h69.592v31.922h.992c9.686-18.361 33.36-37.702 68.647-37.702 73.47 0 87.03 48.333 87.03 111.188v128.031h-72.52V234.322c0-27.078-.471-61.897-37.703-61.897-37.756 0-43.517 29.513-43.517 59.952v115.467h-72.521V114.405z"/></g></svg>