<svg xmlns="http://www.w3.org/2000/svg" width="350" height="350"><path d="M108.154 315.343c132.112 0 204.373-109.456 204.373-204.372 0-3.109 0-6.205-.21-9.286a146.096 146.096 0 0035.835-37.18 143.325 143.325 0 01-41.258 11.3 72.07 72.07 0 0031.58-39.729 143.912 143.912 0 01-45.61 17.435c-27.204-28.926-72.705-30.322-101.631-3.12a71.898 71.898 0 00-20.78 68.632 203.93 203.93 0 01-148.03-75.05c-19.065 32.82-9.329 74.809 22.239 95.885a71.308 71.308 0 01-32.602-8.99v.91c.007 34.193 24.11 63.64 57.626 70.413a71.739 71.739 0 01-32.435 1.233c9.41 29.26 36.376 49.306 67.107 49.882a144.138 144.138 0 01-89.206 30.808 146.036 146.036 0 01-17.096-1.038 203.364 203.364 0 00110.098 32.21" fill="#1da1f2" stroke-miterlimit="10"/></svg>